<svg xmlns="http://www.w3.org/2000/svg" width="254" height="50"><path d="M58.794 0c-3.668 0-8.253.917-10.086 5.501 2.75-.916 8.252-.916 8.252-.916v41.562l4.585-.917s11.002-.917 19.255 2.75c8.252 3.668 19.429.188 19.429.188l-2.008-4.156s-9.169 2.75-15.587 0c-6.419-2.751-16.505-2.751-16.505-2.751H62.46V0zm90.98 10.834c-2.645.066-3.969 2.646-3.969 2.646l1.323-.53v29.634c2.646 0 3.969-2.646 3.969-2.646v-9.26l.577-.29a23.112 23.112 0 0 0 1.836 4.894c5.07 9.891 15.718 14.683 26.147 13.845a28.623 28.623 0 0 0 10.141-2.733l-1.486-3.08c-11.277 5.44-25.917 1.81-31.76-9.592a19.753 19.753 0 0 1-1.734-4.905l2.893-1.447v-3.968l-6.614 3.307V10.834zm37.041 0c-2.645.066-3.968 2.646-3.968 2.646l1.323-.53v20.674c-2.329 3.63-6.494 5.954-10.844 5.63-2.302-.17-4.455-1.113-6.143-2.558l14.262-9.494c.323-5.035-3.809-9.21-8.627-9.812-.411-.051-.819-.079-1.222-.084-6.04-.072-10.963 4.961-11.52 10.854-.548 5.788 2.844 10.867 7.711 13.278a14.254 14.254 0 0 0 5.268 1.448c4.155.31 8.102-1.156 11.115-3.754v3.452c2.645 0 3.968-2.646 3.968-2.646v-5.945c.18-.369.347-.746.499-1.13l-.499-.197V10.834zm7.938 0c-2.645.066-3.969 2.646-3.969 2.646l1.323-.53v29.634c2.646 0 3.969-2.646 3.969-2.646V10.834zm-54.08.053a2.424 2.424 0 0 0-1.941 1.029c-.877 1.253-.428 2.955.785 3.767a2.9 2.9 0 0 0 1.151.455c1.197.194 2.458-.364 3.14-1.417a3.33 3.33 0 0 0 .423-.96l-1.073-.283a2.23 2.23 0 0 1-.28.64c-.587.904-1.845 1.244-2.743.643-.72-.482-.99-1.5-.495-2.209.376-.537 1.156-.736 1.674-.349.357.267.489.805.217 1.132-.188.216-.288-.112 0 0 .085-.162-.004-.382-.12-.589a.682.682 0 0 0-.407-.324c-.249-.082-.41-.112-.708.058-.352.202-.509.614-.493.932.015.317.135.59.355.814.332.336.797.448 1.198.391a1.622 1.622 0 0 0 1.028-.572c.719-.867.42-2.112-.407-2.73a2.133 2.133 0 0 0-1.304-.428zm70.484 6.22a13.808 12.848 0 0 0-13.808 12.848 13.808 12.848 0 0 0 13.808 12.848 13.808 12.848 0 0 0 13.808-12.848 13.808 12.848 0 0 0-1.157-5.134c.013-.598.16-1.275.391-1.76.372-.777 1.833-1.635 1.952-1.699.12-.063.22.089.15.14-.07.051-.397.322-1.164 1.005-.767.683-.784 1.83-.782 2.058 0 .227.256.29.33.231.073-.058.71-.523 1.678-.95.968-.427 1.918-.383 2.848-1.962.93-1.58.79-4.594.79-4.594s-.011-.395-.521.14-.954.535-3.643 1.66c-1.134.474-1.777 1.196-2.137 2.004-.086-.726-.422-1.443-1.321-1.954-1.638-.93-1.923-.964-2.209-1.347-.286-.383-.323-.13-.323-.13s-.206 1.229-.047 2.276a13.808 12.848 0 0 0-8.643-2.833zm-103.717.342c-2.645 0-3.968 2.645-3.968 2.645l1.323-.529v23.019c2.645 0 3.968-2.646 3.968-2.646v-13.23c1.323-6.084 9.26-5.29 9.26-5.29v21.166c2.647 0 3.97-2.646 3.97-2.646v-13.23c1.322-6.084 9.26-5.29 9.26-5.29v21.166c2.646 0 3.969-2.646 3.969-2.646V20.094c0-2.645-2.646-2.645-2.646-2.645h-1.323c-4.257 0-7.228 1.284-9.26 2.819v-.174c0-2.645-2.646-2.645-2.646-2.645h-1.323c-4.257 0-7.228 1.284-9.26 2.819v-2.82zm34.396 0c-2.646 0-3.968 2.645-3.968 2.645l1.322-.529v23.019c2.646 0 3.97-2.646 3.97-2.646v-22.49zm-62.947.093s-4.498 0-4.498 2.646l1.323-.53-.006 10.849c.208 6.948 6.318 12.483 13.788 12.49 7.473-.004 13.587-5.54 13.795-12.49l.008-10.312s-1.324-2.653-4.037-2.653h-.53l-.007 12.965a10.828 10.828 0 0 1-.782 3.686.96.96 0 0 0-.035-.066s-.37-.116-1.193-.488c-.824-.372-1.821-1.681-2.173-2.734-.352-1.053.233-3.16.287-3.326.054-.166.282-.115.264-.005-.018.11-.08.654-.179 1.975-.098 1.321.917 2.4 1.122 2.61.205.21.497.04.513-.08.016-.12.19-1.125.704-2.388.515-1.264 1.436-2.075.88-4.372-.554-2.298-3.387-4.969-3.387-4.969s-.364-.355-.357.598c.006.954-.405 1.351-1.89 4.805-1.484 3.454.815 5.748 2.507 7.25.559.498 1.053.827 1.47 1.045-1.186-.142-2.72-.126-3.553 1.543-.91 1.823-.93 2.133-1.326 2.464-.397.331-.123.358-.123.358s2.097.236 3.242-.339 1.158-1.24 1.501-1.895a6.255 6.255 0 0 1 .741-1.127c.044-.05.012-.23-.146-.24-.159-.012-.96-.054-1.472.449-.513.504-.716.72-.755.765-.04.047-.14-.03-.09-.11.05-.081.716-1.06 1.275-1.284.56-.223 1.45-.269 1.892-.058.045.02.057.029.096.048-1.52 3.313-4.655 5.577-8.262 5.581-4.965-.003-9.042-4.284-9.235-9.697l-.049-12.964zm132.268 2.288a9.248 10.09 0 0 1 9.248 10.09 9.248 10.09 0 0 1-9.248 10.09 9.248 10.09 0 0 1-9.247-10.09 9.248 10.09 0 0 1 9.247-10.09zm10.79.73a.075.075 0 0 1 .053.015c.072.05.943.714 1.121 1.24.173.513.175 1.302-.024 1.712a13.808 12.848 0 0 0-.416-.632c.049.038.205.015.223-.126.019-.146.098-.884-.341-1.382a17.71 17.71 0 0 0-.67-.735c-.03-.028.004-.086.055-.092zm-50.396.391c.27.002.542.02.816.054 3.207.4 5.937 3.33 5.376 6.53-.022.22-.45 1.253-1.263 1.88-.812.627-2.17 1.176-2.922 1.054-1.268-.3-1.93-.296-2.394-.097a5.666 5.666 0 0 1 .024-.6c.033-.454.479-1.151.915-1.5.437-.348 1.533-.437 1.62-.439.088-.003.104.114.048.124-.055.01-.322.076-.963.258-.641.181-.975.847-1.04.98-.063.133.068.242.128.228.06-.013.563-.104 1.249-.08.685.025 1.227.32 2.216-.34.99-.659 1.762-2.458 1.762-2.458s.105-.233-.345-.065c-.449.168-.708.042-2.595-.062-1.888-.104-2.574 1.378-2.991 2.437-.378.957-.254 1.473-.184 1.595-.958.553-1.124 2.053-5.21 3.263-1.107.323.418 1.952 1.367 2.967a10.383 10.383 0 0 1-2.342-2.867c.378-.07.81-.182 1.304-.361 2.127-.771 5.112-2.052 5.01-5.81-.102-3.758-.338-4.28.021-5.163.359-.884-.111-.688-.111-.688s-3.619 1.434-4.984 3.363c-1.365 1.93-.81 3.025-.8 4.389.012 1.364-.198 2.36-.228 2.478-.029.117.18.383.447.264.269-.12 1.61-.745 2.007-2.01.397-1.263.54-1.791.564-1.9.024-.11.255-.073.244.101-.01.174-.246 2.348-.962 3.196-.644.762-1.847 1.522-2.74 1.699a9.14 9.14 0 0 1-.891-4.869c.386-4.082 3.806-7.581 7.847-7.55zm51.732 2.737c0 .044.003.087.004.13a13.808 12.848 0 0 0-.037-.06l.033-.07z" fill="#0f990f"/><path d="M21.859 4.955A21.893 21.893 0 0 0-.034 26.848 21.893 21.893 0 0 0 21.86 48.741a21.893 21.893 0 0 0 21.893-21.893A21.893 21.893 0 0 0 21.86 4.955z" fill="#ff8042"/><path d="M22.275 5.52a5.883 5.883 0 0 1 1.63.189c2.251.579 3.473 2.037 3.473 2.037 4.975.128 5.81 2.251 6.711 3.71.9 1.457 1.994 3.451.236 4.652-1.758 1.2-3.988 1.994-6.411 1.973-2.423-.022-3.816-4.031-3.43-6.39.386-2.358 1.63-3.602 1.63-3.602s-1.899-1.92-3.957-1.555-3.977 1.684-4.578 4.578c-.6 2.895.258 7.044 1.63 11.46 1.383 3.924 2.552 6.026 4.17 12.03.622 3.022 1.92 6.892 1.47 12.274-.451 5.382-.944-.45-.944-.45s.493-5.94-2.273-14.387c-2.766-8.448-3.845-9.161-4.803-14.924-1.096-6.595.223-8.325 1.656-9.888a5.338 5.338 0 0 1 3.79-1.707zM23.442 47.876c-.311.32-4.05.657-7.711-.971-4.873-2.314-11.663-6.033-10.566-14.927C6.263 23.084 6.94 21.9 6.29 19.722c-.65-2.178.42-1.607.42-1.607s8.262 4.226 11.062 9.116c2.8 4.89 1.232 7.36.896 10.594-.336 3.235-.065 5.647-.022 5.933.043.286-.512.869-1.12.525-.61-.343-3.651-2.135-4.305-5.225-.654-3.09-.875-4.376-.906-4.64-.032-.264-.589-.228-.602.188-.013.415.05 5.626 1.558 7.801 1.506 2.176 4.264 4.736 6.397 5.038 2.134.303 2.564.31 3.314.106.587-.148.541.218.46.325z" fill="#97e597"/><path d="M35.555 14.631c1.999.464 4.698 1.513 6.317 3.9 2.81 4.138 2.724 9.627 2.724 9.627s-2.711-.207-5.522-1.649c-.017-1.474-.187-3.034-.617-4.565-.675-2.404-2.228-4.247-3.842-5.593.687-.48.94-1.079.94-1.72zm-1.51 2.086c1.61 1.24 3.25 3.017 3.923 5.413 1.51 5.374-.523 11.154-.523 11.154s-6.15-2.586-8.25-8.308c-.902-2.46-.886-4.76-.576-6.586 2.01-.099 3.87-.732 5.425-1.673zm-7.602 1.102c.613.69 1.761.592 1.761.592s-.83 3.118.525 6.69a13.775 13.775 0 0 0 2.104 3.733c-.631 2.303-1.403 3.872-1.403 3.872s-3.384-3.681-3.721-9.122a15.396 15.396 0 0 1 .734-5.765z" fill="#d6ffff"/><path d="M236.474 10.917v10.5h2.707v-3.973h.767c.44 0 .792.096 1.055.288.267.192.53.551.788 1.076l1.28 2.61h2.883l-1.47-2.982c-.3-.605-.598-1.055-.893-1.35-.29-.3-.621-.493-.992-.578.675-.21 1.18-.539 1.513-.984.337-.445.506-1.015.506-1.709 0-1.003-.324-1.737-.97-2.202-.643-.464-1.656-.696-3.039-.696zm7.835 0c.842.663 1.265 1.737 1.265 2.898 0 .162-.01.322-.026.48l1.776 2.699v4.423h2.708v-4.423l4.002-6.077h-2.968l-2.391 3.742-2.391-3.742zm-5.128 1.962h1.14c.567 0 .973.104 1.216.31.249.206.373.549.373 1.027 0 .483-.124.83-.373 1.04-.243.212-.649.317-1.216.317h-1.14z" fill="#0f990f"/></svg>