<?xml version="1.0" standalone="no"?>
<!DOCTYPE svg PUBLIC "-//W3C//DTD SVG 20010904//EN"
 "http://www.w3.org/TR/2001/REC-SVG-20010904/DTD/svg10.dtd">
<svg version="1.0" xmlns="http://www.w3.org/2000/svg"
 width="260.000000pt" height="260.000000pt" viewBox="0 0 260.000000 260.000000"
 preserveAspectRatio="xMidYMid meet">
<metadata>
Created by potrace 1.11, written by Peter Selinger 2001-2013
</metadata>
<g transform="translate(0.000000,260.000000) scale(0.100000,-0.100000)"
fill="#000000" stroke="none">
<path d="M1227 2574 c-1 -1 -33 -4 -72 -7 -156 -12 -297 -53 -457 -133 -125
-61 -208 -123 -325 -239 -251 -251 -376 -563 -369 -920 4 -152 20 -247 67
-389 109 -328 373 -614 694 -754 75 -33 215 -76 278 -86 20 -3 54 -9 75 -12
20 -4 95 -7 165 -8 97 -1 130 -4 136 -15 7 -11 10 -9 16 8 4 13 15 21 31 22
13 1 27 2 32 3 4 1 25 5 47 9 217 41 475 185 644 360 197 203 329 483 355 752
3 33 5 61 6 63 0 2 10 2 23 0 21 -3 22 1 22 55 0 63 -25 204 -51 282 -19 59
-94 235 -137 320 -79 158 -198 300 -357 429 -46 37 -157 103 -230 138 -121 57
-227 88 -390 114 -28 5 -199 12 -203 8z"/>
</g>
</svg>
